<svg width="155" height="38" viewBox="0 0 155 38" fill="none" xmlns="http://www.w3.org/2000/svg">
<path d="M109.827 36.8653H105.545V10.2972H111.374L119.027 25.6829L121.446 31.1948H121.763L124.103 25.6829L131.677 10.2972H137.506V36.8653H133.223V20.5676L133.382 16.7211H133.065L131.439 20.5676L124.103 35.2792H118.948L111.612 20.5676L109.986 16.7211H109.669L109.827 20.5676V36.8653Z" fill="white"/>
<path d="M43.6066 37.2619C35.6758 37.2619 31.6311 33.7723 31.6311 28.1811V27.9432H35.9138V28.5777C35.9138 31.75 37.7775 33.3361 43.6066 33.3361C48.6823 33.3361 50.4667 32.2258 50.4667 29.7276C50.4667 27.4277 49.1185 26.5553 45.7479 25.9208L39.2447 24.8502C34.7638 24.0571 31.5915 21.9951 31.5915 17.6332C31.5915 13.7867 34.7638 9.90067 43.0118 9.90067C50.784 9.90067 54.3132 13.7867 54.3132 18.9814V19.2193H50.0702V18.7038C50.0702 15.4522 48.1272 13.8264 42.6153 13.8264C37.7775 13.8264 35.8741 15.016 35.8741 17.3953C35.8741 19.6952 37.2223 20.4486 40.355 21.1227L46.8186 22.233C52.1322 23.1847 54.7494 25.6036 54.7494 29.4897C54.7494 33.5344 51.4581 37.2619 43.6066 37.2619Z" fill="white"/>
<path d="M29.4896 36.8653H25.207V10.2972H29.4896V36.8653Z" fill="white"/>
<path d="M12.0151 37.262C4.08435 37.262 0.0396539 33.7724 0.0396539 28.1812V27.9433H4.32228V28.5778C4.32228 31.7501 6.18601 33.3362 12.0151 33.3362C17.0908 33.3362 18.8753 32.2259 18.8753 29.7277C18.8753 27.4278 17.527 26.5554 14.1564 25.9209L7.6532 24.8503C3.17231 24.0572 0 21.9952 0 17.6333C0 13.7869 3.17231 9.90077 11.4203 9.90077C19.1925 9.90077 22.7217 13.7869 22.7217 18.9815V19.2194H18.4787V18.7039C18.4787 15.4523 16.5357 13.8265 11.0238 13.8265C6.18601 13.8265 4.28262 15.0161 4.28262 17.3954C4.28262 19.6953 5.63085 20.4487 8.76351 21.1228L15.2271 22.2331C20.5407 23.1848 23.1579 25.6037 23.1579 29.4898C23.1579 33.5345 19.8666 37.262 12.0151 37.262Z" fill="white"/>
<path fill-rule="evenodd" clip-rule="evenodd" d="M81.9461 14.6257V36.8653H103.201V33.0189H86.2287V25.4053H102.606V21.5986H86.2287V14.1436H103.201V10.2972H86.2746L81.9461 14.6257Z" fill="white"/>
<path fill-rule="evenodd" clip-rule="evenodd" d="M65.7602 36.8653H70.0032V14.1436H80.4321V10.2972H55.2916V14.1436H65.7602V14.1442H68.4641L65.7602 16.8481V36.8653Z" fill="white"/>
<path fill-rule="evenodd" clip-rule="evenodd" d="M146.798 10.3062V15.318H148.205V10.5236L150.593 14.6598L151.812 13.9562L149.361 9.711L153.606 12.162L154.31 10.9432L150.229 8.58734L155 8.58734V7.17036L149.917 7.17036L154.31 4.63423L153.606 3.41549L149.361 5.86625L151.812 1.62148L150.593 0.91784L148.205 5.05414V0.262573H146.798V5.27157L144.284 0.917806L143.066 1.62145L146.626 7.78888L143.066 13.9562L144.284 14.6599L146.798 10.3062ZM140.898 3.6061L142.982 7.17036L140.004 7.17036L140.004 8.58734H142.854L140.897 11.9781L142.115 12.6817L144.957 7.76013L142.113 2.89591L140.898 3.6061Z" fill="#ADF08D"/>
</svg>
